<svg width="107" height="106" viewBox="0 0 107 106" fill="none" xmlns="http://www.w3.org/2000/svg">
<path d="M103.525 30.1505C105.338 30.1505 106.809 28.6801 106.809 26.8663C106.809 25.0524 105.338 23.582 103.525 23.582C101.711 23.582 100.24 25.0524 100.24 26.8663C100.24 28.6801 101.711 30.1505 103.525 30.1505Z" fill="#EAEEF9"/>
<path d="M100.24 19.4956C101.479 19.4956 102.483 18.4914 102.483 17.2527C102.483 16.0139 101.479 15.0098 100.24 15.0098C99.0015 15.0098 97.9973 16.0139 97.9973 17.2527C97.9973 18.4914 99.0015 19.4956 100.24 19.4956Z" fill="#EAEEF9"/>
<path d="M9.40329 26.8667C10.642 26.8667 11.6462 25.8625 11.6462 24.6238C11.6462 23.385 10.642 22.3809 9.40329 22.3809C8.16458 22.3809 7.1604 23.385 7.1604 24.6238C7.1604 25.8625 8.16458 26.8667 9.40329 26.8667Z" fill="#EAEEF9"/>
<path d="M4.35666 76.2097C6.65713 76.2097 8.52203 74.3448 8.52203 72.0443C8.52203 69.7438 6.65713 67.8789 4.35666 67.8789C2.05618 67.8789 0.191284 69.7438 0.191284 72.0443C0.191284 74.3448 2.05618 76.2097 4.35666 76.2097Z" fill="#EAEEF9"/>
<path d="M89.7338 46.5698V75.4872C89.7338 81.495 84.8475 86.3813 78.7596 86.3813H27.9742C21.9664 86.3813 17.0801 81.5751 17 75.5673C17 75.4872 17 75.4872 17 75.4071V46.5698C17 46.4897 17 46.4897 17 46.4096C17 46.2494 17 46.0892 17.0801 45.9289C17.1602 45.6886 17.2403 45.5284 17.3204 45.2881L30.938 19.2544C31.4186 18.2131 32.4599 17.6523 33.5814 17.6523H73.0723C74.1938 17.6523 75.155 18.2131 75.7157 19.2544L89.3333 45.2881C89.4134 45.4483 89.4935 45.6886 89.5736 45.9289C89.7338 46.0892 89.7338 46.3295 89.7338 46.5698Z" fill="#D5DDEA"/>
<g filter="url(#filter0_d_1873_55201)">
<path d="M89.7338 46.5725V78.4537C89.7338 82.8594 86.2093 86.384 81.7235 86.384H25.0103C20.6046 86.384 17 82.8594 17 78.4537V46.4123C17 46.2521 17 46.0918 17.0801 45.9316H35.3437C38.0672 45.9316 40.3101 48.0944 40.3101 50.8981C40.3101 52.2598 40.8708 53.5415 41.7519 54.4226C42.7132 55.3839 43.8346 55.8645 45.2765 55.8645H61.5374C64.2609 55.8645 66.5038 53.7017 66.5038 50.8981C66.5038 49.5363 67.0646 48.2546 67.9457 47.3735C68.9069 46.4123 70.0284 45.9316 71.3901 45.9316H89.5736C89.7338 46.0918 89.7338 46.3322 89.7338 46.5725Z" fill="url(#paint0_linear_1873_55201)"/>
</g>
<path d="M64.0944 8.01562C65.1398 19.4281 65.6625 22.0417 63.2956 32.3773C62.5259 34.6751 61.7562 37.1917 60.1068 38.9424C57.7976 41.6779 53.6191 42.8815 50.2103 42.0062C46.6916 41.1308 43.8326 38.0671 43.1728 34.3468C42.623 32.049 43.3927 29.3135 45.372 27.8911C47.4613 26.578 50.4302 26.9063 52.1896 28.5476C54.1689 30.1889 54.9386 32.7055 54.8286 35.1127C54.7187 37.52 53.839 39.9272 52.6294 42.0062C49.8951 47.1181 48.7694 47.0993 43.1728 55.495" stroke="#ABB5CC" stroke-width="1.15351" stroke-miterlimit="10" stroke-dasharray="2.31 2.31"/>
<path d="M70.2253 3.76697C69.8073 5.29198 68.1354 5.84653 66.4635 4.87607C64.6523 4.04424 63.3984 3.35105 63.6771 1.96468C64.095 0.578303 65.7669 0.439666 67.7174 0.301028C70.0859 0.023753 70.5039 2.24195 70.2253 3.76697Z" fill="#DAE2EB"/>
<path d="M56.7108 5.15042C57.4075 6.39816 59.358 7.22998 60.7512 5.98225C62.2838 4.59587 63.5377 3.62541 62.841 2.23903C62.1444 0.991293 61.0298 1.40721 58.6614 1.68448C56.7108 2.10039 55.8749 3.76404 56.7108 5.15042Z" fill="#DAE2EB"/>
<path d="M62.8409 0.0212315C63.8162 -0.117406 64.7915 0.437144 65.0701 1.26897C65.2094 1.54624 65.3488 1.96216 65.3488 2.23943C65.6274 4.18036 64.9308 5.84401 63.8162 5.98265C62.5623 6.25992 61.3084 4.87355 61.1691 3.07126C61.1691 2.51671 61.1691 2.23943 61.1691 1.82352C61.3084 0.853057 61.8657 0.159869 62.8409 0.0212315C62.9803 0.0212315 62.8409 0.0212315 62.8409 0.0212315Z" fill="#989FB0"/>
<path d="M44.8378 67.3612C45.8528 67.3612 46.6756 66.5384 46.6756 65.5234C46.6756 64.5084 45.8528 63.6855 44.8378 63.6855C43.8228 63.6855 43 64.5084 43 65.5234C43 66.5384 43.8228 67.3612 44.8378 67.3612Z" fill="#989FB0"/>
<path d="M63.1165 67.3612C64.1315 67.3612 64.9543 66.5384 64.9543 65.5234C64.9543 64.5084 64.1315 63.6855 63.1165 63.6855C62.1015 63.6855 61.2787 64.5084 61.2787 65.5234C61.2787 66.5384 62.1015 67.3612 63.1165 67.3612Z" fill="#989FB0"/>
<path d="M56.9573 79.4306H51.1955C50.3015 79.4306 49.5564 78.6855 49.5564 77.7915C49.5564 76.8974 50.3015 76.1523 51.1955 76.1523H56.9076C57.8017 76.1523 58.5467 76.8974 58.5467 77.7915C58.5964 78.6855 57.8514 79.4306 56.9573 79.4306Z" fill="#989FB0"/>
<defs>
<filter id="filter0_d_1873_55201" x="4.31138" y="39.5873" width="98.111" height="65.8304" filterUnits="userSpaceOnUse" color-interpolation-filters="sRGB">
<feFlood flood-opacity="0" result="BackgroundImageFix"/>
<feColorMatrix in="SourceAlpha" type="matrix" values="0 0 0 0 0 0 0 0 0 0 0 0 0 0 0 0 0 0 127 0" result="hardAlpha"/>
<feOffset dy="6.34431"/>
<feGaussianBlur stdDeviation="6.34431"/>
<feColorMatrix type="matrix" values="0 0 0 0 0.397708 0 0 0 0 0.47749 0 0 0 0 0.575 0 0 0 0.27 0"/>
<feBlend mode="normal" in2="BackgroundImageFix" result="effect1_dropShadow_1873_55201"/>
<feBlend mode="normal" in="SourceGraphic" in2="effect1_dropShadow_1873_55201" result="shape"/>
</filter>
<linearGradient id="paint0_linear_1873_55201" x1="53.3432" y1="44.9959" x2="53.3432" y2="86.8201" gradientUnits="userSpaceOnUse">
<stop stop-color="#FDFEFF"/>
<stop offset="0.9964" stop-color="#ECF0F5"/>
</linearGradient>
</defs>
</svg>
