<svg width="133" height="32" viewBox="0 0 133 32" fill="none" xmlns="http://www.w3.org/2000/svg">
<rect width="32" height="32" rx="8" fill="#2970FF"/>
<path d="M22.6666 22.6664C22.6666 23.1267 22.2936 23.4998 21.8333 23.4998H10.1666C9.70641 23.4998 9.33331 23.1267 9.33331 22.6664V15.1664H6.83331L15.4394 7.3427C15.7572 7.05374 16.2427 7.05374 16.5606 7.3427L25.1666 15.1664H22.6666V22.6664ZM12.25 16.8331C12.25 18.9042 13.9289 20.5831 16 20.5831C18.0711 20.5831 19.75 18.9042 19.75 16.8331H18.0833C18.0833 17.9837 17.1506 18.9164 16 18.9164C14.8494 18.9164 13.9166 17.9837 13.9166 16.8331H12.25Z" fill="white"/>
<path d="M40.896 15V3.8H43.056V8.424H48.4V3.8H50.56V15H48.4V10.36H43.056V15H40.896ZM56.1891 15.128C54.9945 15.128 53.9705 14.696 53.1171 13.832C52.2638 12.968 51.8371 11.9387 51.8371 10.744C51.8371 9.53867 52.2638 8.50933 53.1171 7.656C53.9705 6.80267 54.9945 6.376 56.1891 6.376C57.3945 6.376 58.4238 6.808 59.2771 7.672C60.1305 8.52533 60.5571 9.54933 60.5571 10.744C60.5571 11.9493 60.1305 12.984 59.2771 13.848C58.4238 14.7013 57.3945 15.128 56.1891 15.128ZM56.1891 13.224C56.8718 13.224 57.4478 12.984 57.9171 12.504C58.3865 12.0133 58.6211 11.4267 58.6211 10.744C58.6211 10.0613 58.3865 9.48 57.9171 9C57.4478 8.50933 56.8718 8.264 56.1891 8.264C55.5171 8.264 54.9465 8.50933 54.4771 9C54.0078 9.48 53.7731 10.0613 53.7731 10.744C53.7731 11.4267 54.0078 12.0133 54.4771 12.504C54.9465 12.984 55.5171 13.224 56.1891 13.224ZM61.6054 15V6.52H63.6854V7.784C63.9627 7.304 64.368 6.94133 64.9014 6.696C65.4347 6.44 66.0854 6.37067 66.8534 6.488V8.712C66.0534 8.44533 65.3227 8.504 64.6614 8.888C64.0107 9.272 63.6854 9.86933 63.6854 10.68V15H61.6054ZM70.0726 5.24C69.8166 5.48533 69.5073 5.608 69.1446 5.608C68.782 5.608 68.4726 5.48533 68.2166 5.24C67.9606 4.984 67.8326 4.67467 67.8326 4.312C67.8326 3.94933 67.9606 3.64 68.2166 3.384C68.4726 3.128 68.782 3 69.1446 3C69.5073 3 69.8166 3.128 70.0726 3.384C70.3286 3.64 70.4566 3.94933 70.4566 4.312C70.4566 4.67467 70.3286 4.984 70.0726 5.24ZM68.0886 15V6.52H70.1686V15H68.0886ZM71.5785 15.016V12.872L75.9305 8.456H71.5945V6.52H78.4745V8.504L74.0105 13.08H78.4425V15.016H71.5785ZM83.7054 15.128C82.5107 15.128 81.4867 14.696 80.6334 13.832C79.78 12.968 79.3534 11.9387 79.3534 10.744C79.3534 9.53867 79.78 8.50933 80.6334 7.656C81.4867 6.80267 82.5107 6.376 83.7054 6.376C84.9107 6.376 85.94 6.808 86.7934 7.672C87.6467 8.52533 88.0734 9.54933 88.0734 10.744C88.0734 11.9493 87.6467 12.984 86.7934 13.848C85.94 14.7013 84.9107 15.128 83.7054 15.128ZM83.7054 13.224C84.388 13.224 84.964 12.984 85.4334 12.504C85.9027 12.0133 86.1374 11.4267 86.1374 10.744C86.1374 10.0613 85.9027 9.48 85.4334 9C84.964 8.50933 84.388 8.264 83.7054 8.264C83.0334 8.264 82.4627 8.50933 81.9934 9C81.524 9.48 81.2894 10.0613 81.2894 10.744C81.2894 11.4267 81.524 12.0133 81.9934 12.504C82.4627 12.984 83.0334 13.224 83.7054 13.224ZM89.1216 15V6.52H91.2016V7.464C91.8523 6.73867 92.6896 6.376 93.7136 6.376C94.6843 6.376 95.5163 6.68533 96.2096 7.304C96.903 7.92267 97.2496 8.744 97.2496 9.768V15H95.1696V10.312C95.1696 9.704 94.9883 9.21867 94.6256 8.856C94.263 8.49333 93.8203 8.312 93.2976 8.312C92.679 8.312 92.1723 8.536 91.7776 8.984C91.3936 9.42133 91.2016 9.97067 91.2016 10.632V15H89.1216Z" fill="#0A0D14"/>
<path d="M40.59 27V20H43.6C44.2733 20 44.8233 20.2233 45.25 20.67C45.6833 21.1167 45.9 21.66 45.9 22.3C45.9 22.9533 45.6833 23.5 45.25 23.94C44.8233 24.3733 44.2733 24.59 43.6 24.59L41.63 24.6V27H40.59ZM41.63 23.67L43.54 23.66C43.96 23.66 44.29 23.5267 44.53 23.26C44.7767 22.9933 44.9 22.6633 44.9 22.27C44.9 21.8833 44.7767 21.5667 44.53 21.32C44.29 21.0667 43.96 20.94 43.54 20.94H41.63V23.67ZM46.6998 27V21.7H47.6998V22.66C47.8598 22.2933 48.1198 22.02 48.4798 21.84C48.8464 21.6533 49.2864 21.6 49.7998 21.68V22.74C49.2398 22.58 48.7498 22.65 48.3298 22.95C47.9098 23.25 47.6998 23.7067 47.6998 24.32V27H46.6998ZM54.644 26.28C54.1173 26.8133 53.4773 27.08 52.724 27.08C51.9707 27.08 51.3273 26.8133 50.794 26.28C50.2673 25.74 50.004 25.0933 50.004 24.34C50.004 23.5867 50.2673 22.9433 50.794 22.41C51.3273 21.8767 51.9707 21.61 52.724 21.61C53.4773 21.61 54.1173 21.88 54.644 22.42C55.1773 22.9533 55.444 23.5933 55.444 24.34C55.444 25.0933 55.1773 25.74 54.644 26.28ZM51.464 25.63C51.8107 25.9833 52.2307 26.16 52.724 26.16C53.2173 26.16 53.6373 25.9833 53.984 25.63C54.3307 25.27 54.504 24.84 54.504 24.34C54.504 23.84 54.3307 23.4133 53.984 23.06C53.644 22.7 53.224 22.52 52.724 22.52C52.2307 22.52 51.8107 22.7 51.464 23.06C51.1173 23.4133 50.944 23.84 50.944 24.34C50.944 24.8467 51.1173 25.2767 51.464 25.63ZM56.2556 29.1V21.7H57.2556V22.52C57.6956 21.9133 58.3056 21.61 59.0856 21.61C59.8123 21.61 60.4356 21.88 60.9556 22.42C61.4756 22.9533 61.7356 23.5933 61.7356 24.34C61.7356 25.1 61.4756 25.7467 60.9556 26.28C60.4423 26.8133 59.819 27.08 59.0856 27.08C58.7056 27.08 58.3556 26.9967 58.0356 26.83C57.7156 26.6633 57.4556 26.44 57.2556 26.16V29.1H56.2556ZM57.7256 25.64C58.079 26 58.5056 26.18 59.0056 26.18C59.5056 26.18 59.929 26 60.2756 25.64C60.6223 25.28 60.7956 24.8467 60.7956 24.34C60.7956 23.84 60.6223 23.4133 60.2756 23.06C59.9356 22.7 59.5123 22.52 59.0056 22.52C58.5056 22.52 58.079 22.7 57.7256 23.06C57.3723 23.42 57.1956 23.8467 57.1956 24.34C57.1956 24.84 57.3723 25.2733 57.7256 25.64ZM65.0342 27.08C64.2742 27.08 63.6309 26.8133 63.1042 26.28C62.5776 25.74 62.3142 25.0933 62.3142 24.34C62.3142 23.58 62.5809 22.9367 63.1142 22.41C63.6476 21.8767 64.2876 21.61 65.0342 21.61C65.7009 21.61 66.2842 21.8333 66.7842 22.28C67.2909 22.72 67.5942 23.2667 67.6942 23.92C67.7542 24.22 67.7576 24.4833 67.7042 24.71H63.3042C63.3642 25.1567 63.5542 25.5133 63.8742 25.78C64.2009 26.0467 64.5876 26.18 65.0342 26.18C65.3476 26.18 65.6442 26.1133 65.9242 25.98C66.2042 25.8467 66.4342 25.6633 66.6142 25.43L67.5042 25.66C67.2909 26.0867 66.9542 26.43 66.4942 26.69C66.0342 26.95 65.5476 27.08 65.0342 27.08ZM63.3042 23.93H66.7242C66.6576 23.5233 66.4676 23.1833 66.1542 22.91C65.8409 22.6367 65.4642 22.5 65.0242 22.5C64.5776 22.5 64.1942 22.64 63.8742 22.92C63.5542 23.1933 63.3642 23.53 63.3042 23.93ZM68.458 27V21.7H69.458V22.66C69.618 22.2933 69.878 22.02 70.238 21.84C70.6046 21.6533 71.0446 21.6 71.558 21.68V22.74C70.998 22.58 70.508 22.65 70.088 22.95C69.668 23.25 69.458 23.7067 69.458 24.32V27H68.458ZM75.7637 26.96C74.9504 27.18 74.2971 27.1467 73.8037 26.86C73.3171 26.5733 73.0737 26.06 73.0737 25.32L73.0837 22.57H72.0337V21.7H73.0837V20.33H74.0737L74.0637 21.7H75.7437V22.57H74.0637L74.0537 25.31C74.0537 25.6833 74.1937 25.9367 74.4737 26.07C74.7604 26.1967 75.1904 26.1733 75.7637 26V26.96ZM77.619 20.76C77.4923 20.8867 77.3357 20.95 77.149 20.95C76.9623 20.95 76.8023 20.8867 76.669 20.76C76.5423 20.6333 76.479 20.4767 76.479 20.29C76.479 20.1033 76.5423 19.9433 76.669 19.81C76.8023 19.6767 76.9623 19.61 77.149 19.61C77.3357 19.61 77.4923 19.6767 77.619 19.81C77.7523 19.9367 77.819 20.0967 77.819 20.29C77.819 20.4767 77.7523 20.6333 77.619 20.76ZM76.639 27V21.7H77.639V27H76.639ZM81.2651 27.08C80.5051 27.08 79.8617 26.8133 79.3351 26.28C78.8084 25.74 78.5451 25.0933 78.5451 24.34C78.5451 23.58 78.8117 22.9367 79.3451 22.41C79.8784 21.8767 80.5184 21.61 81.2651 21.61C81.9317 21.61 82.5151 21.8333 83.0151 22.28C83.5217 22.72 83.8251 23.2667 83.9251 23.92C83.9851 24.22 83.9884 24.4833 83.9351 24.71H79.5351C79.5951 25.1567 79.7851 25.5133 80.1051 25.78C80.4317 26.0467 80.8184 26.18 81.2651 26.18C81.5784 26.18 81.8751 26.1133 82.1551 25.98C82.4351 25.8467 82.6651 25.6633 82.8451 25.43L83.7351 25.66C83.5217 26.0867 83.1851 26.43 82.7251 26.69C82.2651 26.95 81.7784 27.08 81.2651 27.08ZM79.5351 23.93H82.9551C82.8884 23.5233 82.6984 23.1833 82.3851 22.91C82.0717 22.6367 81.6951 22.5 81.2551 22.5C80.8084 22.5 80.4251 22.64 80.1051 22.92C79.7851 23.1933 79.5951 23.53 79.5351 23.93ZM86.8877 27.08C86.1343 27.08 85.391 26.8433 84.6577 26.37V25.3C84.8977 25.5333 85.221 25.7433 85.6277 25.93C86.0343 26.1167 86.451 26.21 86.8777 26.21C87.2243 26.21 87.4977 26.1467 87.6977 26.02C87.8977 25.8867 87.9943 25.7167 87.9877 25.51C87.9877 25.33 87.8777 25.1767 87.6577 25.05C87.4443 24.9233 87.0777 24.8067 86.5577 24.7C85.891 24.5533 85.3977 24.3667 85.0777 24.14C84.7577 23.9067 84.5977 23.5867 84.5977 23.18C84.5977 22.6933 84.8043 22.31 85.2177 22.03C85.6377 21.75 86.1377 21.61 86.7177 21.61C87.391 21.61 88.0743 21.8067 88.7677 22.2V23.15C88.0477 22.6967 87.3643 22.47 86.7177 22.47C86.411 22.47 86.1477 22.5367 85.9277 22.67C85.7077 22.7967 85.5977 22.9633 85.5977 23.17C85.5977 23.39 85.7677 23.56 86.1077 23.68C86.2677 23.74 86.6177 23.8267 87.1577 23.94C87.8177 24.08 88.2843 24.28 88.5577 24.54C88.8377 24.8 88.9777 25.1233 88.9777 25.51C88.9777 26.0233 88.7777 26.4133 88.3777 26.68C87.9777 26.9467 87.481 27.08 86.8877 27.08Z" fill="#31353F"/>
</svg>
